<svg width="22" height="21" viewBox="0 0 22 21" fill="none" xmlns="http://www.w3.org/2000/svg">
<g clip-path="url(#clip0_203_1798)">
<path d="M1.30811 1.35486V19.6451H20.6927" stroke="#030723" stroke-miterlimit="10" stroke-linecap="round" stroke-linejoin="round"/>
<path d="M13.2068 12.4749L17.4876 8.19813V8.19409" stroke="#030723" stroke-miterlimit="10" stroke-linecap="round" stroke-linejoin="round"/>
<path d="M18.3436 8.55186C19.0127 8.55186 19.5552 8.00944 19.5552 7.34032C19.5552 6.67121 19.0127 6.12878 18.3436 6.12878C17.6745 6.12878 17.1321 6.67121 17.1321 7.34032C17.1321 8.00944 17.6745 8.55186 18.3436 8.55186Z" stroke="#030723" stroke-miterlimit="10" stroke-linecap="round" stroke-linejoin="round"/>
<path d="M5.74564 10.6777L1.30737 15.1159M11.3106 12.6929L7.63564 10.4515M7.81495 9.82152C7.81495 10.1527 7.67764 10.4596 7.45957 10.6777C7.34727 10.7904 7.21384 10.8798 7.06692 10.9408C6.92001 11.0018 6.76249 11.0332 6.60341 11.0332C6.44433 11.0332 6.28682 11.0018 6.1399 10.9408C5.99298 10.8798 5.85955 10.7904 5.74726 10.6777C5.63418 10.5657 5.54453 10.4323 5.48351 10.2853C5.4225 10.1383 5.39135 9.98067 5.39187 9.82152C5.39187 9.15114 5.93303 8.60999 6.60341 8.60999C7.26976 8.60999 7.81495 9.15114 7.81495 9.82152ZM13.554 13.3229C13.554 13.9933 13.0088 14.5344 12.3425 14.5344C12.1041 14.535 11.8709 14.4651 11.6721 14.3337C11.4732 14.2022 11.3177 14.0149 11.2249 13.7953C11.1322 13.5757 11.1064 13.3336 11.1507 13.0994C11.1951 12.8652 11.3076 12.6493 11.4742 12.4788C11.5865 12.3628 11.721 12.2704 11.8696 12.2072C12.0183 12.144 12.1781 12.1113 12.3396 12.1109C12.5011 12.1105 12.6611 12.1425 12.81 12.205C12.9589 12.2675 13.0938 12.3593 13.2067 12.4748C13.4207 12.6929 13.554 12.9917 13.554 13.3229Z" stroke="#030723" stroke-miterlimit="10" stroke-linecap="round" stroke-linejoin="round"/>
</g>
<defs>
<clipPath id="clip0_203_1798">
<rect width="21" height="21" fill="white" transform="translate(0.5)"/>
</clipPath>
</defs>
</svg>
