<svg width="20" height="20" viewBox="0 0 20 20" fill="none" xmlns="http://www.w3.org/2000/svg">
<path fill-rule="evenodd" clip-rule="evenodd" d="M6.66675 1.66665C6.66675 1.20641 6.29365 0.833313 5.83341 0.833313C5.37318 0.833313 5.00008 1.20641 5.00008 1.66665V2.49998H4.16675C3.50371 2.49998 2.86782 2.76337 2.39898 3.23221C1.93014 3.70105 1.66675 4.33694 1.66675 4.99998V15.8333C1.66675 16.4964 1.93014 17.1322 2.39898 17.6011C2.86782 18.0699 3.50371 18.3333 4.16675 18.3333H15.8334C16.4965 18.3333 17.1323 18.0699 17.6012 17.6011C18.07 17.1322 18.3334 16.4964 18.3334 15.8333V4.99998C18.3334 4.33694 18.07 3.70105 17.6012 3.23221C17.1323 2.76337 16.4965 2.49998 15.8334 2.49998H15.4167C14.9565 2.49998 14.5834 2.87308 14.5834 3.33331C14.5834 3.79355 14.9565 4.16665 15.4167 4.16665H15.8334C16.0544 4.16665 16.2664 4.25444 16.4227 4.41072C16.5789 4.567 16.6667 4.77897 16.6667 4.99998V7.49998H3.33341V4.99998C3.33341 4.77897 3.42121 4.567 3.57749 4.41072C3.73377 4.25444 3.94573 4.16665 4.16675 4.16665H5.00008V4.99998C5.00008 5.46022 5.37318 5.83331 5.83341 5.83331C6.29365 5.83331 6.66675 5.46022 6.66675 4.99998V1.66665ZM3.57749 16.4226C3.42121 16.2663 3.33341 16.0543 3.33341 15.8333V9.16665H16.6667V15.8333C16.6667 16.0543 16.5789 16.2663 16.4227 16.4226C16.2664 16.5788 16.0544 16.6666 15.8334 16.6666H4.16675C3.94573 16.6666 3.73377 16.5788 3.57749 16.4226Z" fill="#030723"/>
<path d="M13.3334 1.66665C13.3334 1.20641 12.9603 0.833313 12.5001 0.833313C12.0398 0.833313 11.6667 1.20641 11.6667 1.66665V2.49998H8.75008C8.28984 2.49998 7.91675 2.87308 7.91675 3.33331C7.91675 3.79355 8.28984 4.16665 8.75008 4.16665H11.6667V4.99998C11.6667 5.46022 12.0398 5.83331 12.5001 5.83331C12.9603 5.83331 13.3334 5.46022 13.3334 4.99998V1.66665Z" fill="#030723"/>
</svg>
