<svg width="20" height="20" viewBox="0 0 20 20" fill="none" xmlns="http://www.w3.org/2000/svg">
<g clip-path="url(#clip0_203_1916)">
<path d="M8.33325 7.49998C8.33325 7.01084 8.51569 6.69801 8.75521 6.49478C9.01285 6.27618 9.38605 6.14581 9.79159 6.14581C10.1971 6.14581 10.5703 6.27618 10.828 6.49478C11.0675 6.69801 11.2499 7.01084 11.2499 7.49998C11.2499 7.86428 11.1641 8.06654 11.0644 8.21612C10.948 8.39062 10.7949 8.52824 10.536 8.76096L10.4841 8.80765C10.2178 9.04735 9.86739 9.37139 9.60023 9.84339C9.3249 10.3298 9.16659 10.9176 9.16659 11.6666C9.16659 12.1269 9.53968 12.5 9.99992 12.5C10.4602 12.5 10.8333 12.1269 10.8333 11.6666C10.8333 11.1657 10.9354 10.8681 11.0507 10.6644C11.1741 10.4463 11.3446 10.2755 11.5991 10.0465C11.622 10.0259 11.6461 10.0043 11.6713 9.98188C11.899 9.77889 12.2109 9.50085 12.4511 9.14062C12.742 8.70425 12.9166 8.17734 12.9166 7.49998C12.9166 6.53079 12.5261 5.74987 11.9063 5.22393C11.3045 4.71336 10.5319 4.47915 9.79159 4.47915C9.05128 4.47915 8.27866 4.71336 7.67692 5.22393C7.05706 5.74987 6.66659 6.53079 6.66659 7.49998C6.66659 7.96022 7.03968 8.33331 7.49992 8.33331C7.96016 8.33331 8.33325 7.96022 8.33325 7.49998Z" fill="#030723"/>
<path d="M10.6249 15.5597C10.9345 15.2192 10.9094 14.6921 10.5688 14.3825C10.2283 14.0729 9.70125 14.098 9.39165 14.4386L9.38332 14.4477C9.07372 14.7883 9.0988 15.3153 9.43934 15.6249C9.77988 15.9345 10.3069 15.9094 10.6165 15.5689L10.6249 15.5597Z" fill="#030723"/>
<path fill-rule="evenodd" clip-rule="evenodd" d="M9.99992 0.833313C4.93718 0.833313 0.833252 4.93724 0.833252 9.99998C0.833252 15.0627 4.93718 19.1666 9.99992 19.1666C15.0627 19.1666 19.1666 15.0627 19.1666 9.99998C19.1666 4.93724 15.0627 0.833313 9.99992 0.833313ZM2.49992 9.99998C2.49992 5.85772 5.85766 2.49998 9.99992 2.49998C14.1422 2.49998 17.4999 5.85772 17.4999 9.99998C17.4999 14.1422 14.1422 17.5 9.99992 17.5C5.85766 17.5 2.49992 14.1422 2.49992 9.99998Z" fill="#030723"/>
</g>
<defs>
<clipPath id="clip0_203_1916">
<rect width="20" height="20" fill="white"/>
</clipPath>
</defs>
</svg>
