<svg width="20" height="20" viewBox="0 0 20 20" fill="none" xmlns="http://www.w3.org/2000/svg">
<path d="M17.2896 8.71741L17.2857 8.70178L15.0943 3.13342C14.9966 2.81897 14.7056 2.60217 14.3756 2.60217H5.49274C5.16071 2.60217 4.86579 2.82288 4.77204 3.14124L2.72321 8.65295L2.71735 8.66663L2.71344 8.68225C2.68805 8.77795 2.68024 8.87561 2.69391 8.97131C2.69196 9.00256 2.69001 9.03381 2.69001 9.06506V16.2115C2.69052 16.5263 2.8158 16.8281 3.03839 17.0507C3.26098 17.2733 3.56272 17.3985 3.87751 17.399H16.1275C16.7818 17.399 17.315 16.8658 17.317 16.2115V9.06506C17.317 9.03967 17.317 9.01428 17.315 8.9928C17.3228 8.89709 17.315 8.8053 17.2896 8.71741ZM11.5123 7.87756L11.5064 8.1842C11.4908 9.06116 10.8853 9.651 10.0006 9.651C9.56891 9.651 9.19782 9.51233 8.93024 9.24866C8.66266 8.98498 8.51618 8.6178 8.50837 8.1842L8.50251 7.87756H4.48298L6.03571 4.10217H13.8326L15.4283 7.87756H11.5123ZM4.18805 9.37756H7.26032C7.73493 10.4928 8.74469 11.151 10.0025 11.151C10.6607 11.151 11.272 10.9674 11.7662 10.6198C12.1998 10.3151 12.5377 9.88928 12.7564 9.37756H15.8131V15.899H4.18805V9.37756Z" fill="#030723"/>
</svg>
